<?xml version="1.0" encoding="utf-8"?>
<!-- Generator: Adobe Illustrator 16.0.0, SVG Export Plug-In . SVG Version: 6.00 Build 0)  -->
<!DOCTYPE svg PUBLIC "-//W3C//DTD SVG 1.0//EN" "http://www.w3.org/TR/2001/REC-SVG-20010904/DTD/svg10.dtd">
<svg version="1.0" id="Layer_1" xmlns="http://www.w3.org/2000/svg" xmlns:xlink="http://www.w3.org/1999/xlink" x="0px" y="0px"
	 width="100px" height="25.75px" viewBox="0 0 100 25.75" enable-background="new 0 0 100 25.75" xml:space="preserve">
<g>
	<path fill="#FFFFFF" d="M12.433,14.355c0,0.635,0.514,1.149,1.149,1.149h4.06c0.097,0,0.176,0.087,0.166,0.186
		c-0.295,2.625-2.416,4.529-5.471,4.529c-3.245,0-5.799-2.65-5.799-6.074c0-3.376,2.554-6.05,5.846-6.05
		c2.049,0,3.492,1.06,4.289,1.82c0.228,0.217,0.462,0.377,0.715,0.481c0.06,0.034,0.118,0.071,0.182,0.101
		c0.155,0.071,0.295,0.071,0.424,0.029c0.005,0,0.011,0.002,0.015,0.002c0.869,0,1.373-0.933,0.955-1.662
		c0.016-0.067,0.024-0.108,0.024-0.108s-0.347-0.495-1.139-1.12c-1.322-1.123-3.242-1.935-5.56-1.935
		c-4.973,0-8.927,4.385-8.312,9.491c0.58,4.815,5.322,8.065,10.099,7.223c3.731-0.658,6.421-3.494,6.421-8.223v-0.986h-6.916
		C12.947,13.207,12.433,13.722,12.433,14.355"/>
	<path fill="#FFFFFF" d="M33.544,8.305c0.653,0,1.184-0.53,1.184-1.185s-0.531-1.184-1.184-1.184h-9.912v16.417h9.912
		c0.653,0,1.184-0.531,1.184-1.186c0-0.652-0.531-1.184-1.184-1.184h-7.311v-4.972h6.523c0.654,0,1.185-0.53,1.185-1.184
		c0-0.653-0.531-1.185-1.185-1.185h-6.523V8.305H33.544z"/>
	<path fill="#FFFFFF" d="M65.81,8.305c0.653,0,1.184-0.53,1.184-1.185s-0.53-1.184-1.184-1.184h-9.911v16.417h9.911
		c0.653,0,1.184-0.531,1.184-1.186c0-0.652-0.53-1.184-1.184-1.184h-7.311v-4.972h6.523c0.654,0,1.184-0.53,1.184-1.184
		c0-0.653-0.529-1.185-1.184-1.185h-6.523V8.305H65.81z"/>
	<path fill="#FFFFFF" d="M93.848,13.174c0.888-0.753,1.435-1.887,1.435-2.992c0-2.118-1.42-3.918-3.464-4.404V5.091
		c0-0.29-0.117-0.571-0.319-0.774C91.294,4.113,91.02,4,90.728,4c-0.603,0-1.092,0.489-1.092,1.091v0.685
		c-2.043,0.479-3.463,2.255-3.463,4.345c0,1.135,0.503,2.201,1.418,3.017c-1.374,0.866-2.255,2.504-2.255,4.211
		c0,2.465,1.804,4.602,4.3,5.108v0.344c0,0.602,0.489,1.092,1.092,1.092c0.601,0,1.091-0.49,1.091-1.092v-0.336
		c2.497-0.494,4.3-2.632,4.3-5.116C96.118,15.671,95.272,14.12,93.848,13.174 M90.775,7.689c1.281,0,2.323,1.063,2.323,2.37
		c0,1.282-1.053,2.324-2.346,2.324c-1.299,0-2.396-1.064-2.396-2.324C88.356,8.73,89.419,7.689,90.775,7.689 M90.773,20.527
		c-1.852,0-3.248-1.396-3.248-3.248c0-1.645,1.485-3.088,3.179-3.088c1.778,0,3.226,1.416,3.226,3.157
		C93.93,19.101,92.514,20.527,90.773,20.527"/>
	<path fill="#FFFFFF" d="M50.655,5.783c-0.743,0-1.222,0.473-1.222,1.206v11.505L40.68,6.889c-0.616-0.83-0.94-1.106-1.643-1.106
		c-0.755,0-1.123,0.432-1.123,1.321v14.32c0,0.734,0.48,1.207,1.222,1.207c0.742,0,1.222-0.473,1.222-1.207V9.921l8.753,11.604
		c0.616,0.828,0.939,1.105,1.642,1.105c0.756,0,1.123-0.432,1.123-1.32V6.989C51.877,6.255,51.396,5.783,50.655,5.783"/>
	<path fill="#FFFFFF" d="M78.778,15.373c2.168-0.445,3.735-1.776,3.735-4.488c0-3.682-2.601-4.948-5.846-4.948h-6.442v15.116
		c0,0.719,0.582,1.301,1.3,1.301c0.719,0,1.301-0.582,1.301-1.301v-5.407h2.816c0,0,0.074-0.006,0.185-0.011l4.595,5.955
		c0.232,0.299,0.545,0.613,1.107,0.684c0.064,0.008,0.128,0.012,0.192,0.012c0.254,0,0.496-0.063,0.697-0.184
		c0.273-0.166,0.443-0.418,0.48-0.709c0.053-0.424-0.057-0.768-0.359-1.145L78.778,15.373z M72.803,13.301V8.282h3.865
		c1.885,0,3.245,0.657,3.245,2.557c0,1.876-1.408,2.462-3.197,2.462H72.803z"/>
</g>
</svg>
