<?xml version="1.0" encoding="utf-8"?>
<!-- Generator: Adobe Illustrator 16.0.0, SVG Export Plug-In . SVG Version: 6.00 Build 0)  -->
<!DOCTYPE svg PUBLIC "-//W3C//DTD SVG 1.0//EN" "http://www.w3.org/TR/2001/REC-SVG-20010904/DTD/svg10.dtd">
<svg version="1.0" id="Layer_1" xmlns="http://www.w3.org/2000/svg" xmlns:xlink="http://www.w3.org/1999/xlink" x="0px" y="0px"
	 width="30px" height="30px" viewBox="0 0 30 30" enable-background="new 0 0 30 30" xml:space="preserve">
<path d="M26.341,22.904l-7.93-7.959l7.947-7.856c0.326-0.326,0.326-0.858,0-1.185l-2.26-2.272c-0.157-0.157-0.369-0.241-0.593-0.241
	s-0.435,0.09-0.592,0.241l-7.911,7.832L7.081,3.638C6.923,3.48,6.712,3.396,6.488,3.396S6.053,3.487,5.896,3.638L3.642,5.91
	c-0.326,0.326-0.326,0.858,0,1.185l7.947,7.856l-7.923,7.953c-0.157,0.157-0.248,0.368-0.248,0.593c0,0.224,0.085,0.435,0.248,0.592
	l2.26,2.272c0.163,0.163,0.375,0.248,0.592,0.248c0.211,0,0.429-0.079,0.592-0.248l7.893-7.93l7.898,7.924
	c0.164,0.163,0.375,0.247,0.593,0.247c0.212,0,0.429-0.078,0.592-0.247l2.261-2.272c0.157-0.157,0.248-0.369,0.248-0.593
	C26.588,23.272,26.498,23.062,26.341,22.904z"/>
</svg>
